<svg width="23" height="23" viewBox="0 0 23 23" fill="none" xmlns="http://www.w3.org/2000/svg">
<circle cx="11.7401" cy="11.5521" r="10.8896" fill="white"/>
<path d="M7.79685 12.1906H9.13719V17.9216C9.13719 18.0348 9.22546 18.1265 9.33441 18.1265H11.607C11.716 18.1265 11.8042 18.0348 11.8042 17.9216V12.2176H13.3451C13.4453 12.2176 13.5296 12.1395 13.541 12.0362L13.775 9.92633C13.7815 9.86828 13.7638 9.81014 13.7264 9.76659C13.6889 9.72301 13.6354 9.69805 13.5791 9.69805H11.8043V8.37547C11.8043 7.9768 12.011 7.77462 12.4187 7.77462C12.4768 7.77462 13.5791 7.77462 13.5791 7.77462C13.6881 7.77462 13.7764 7.68289 13.7764 7.56979V5.6331C13.7764 5.51995 13.6881 5.42827 13.5791 5.42827H11.9799C11.9686 5.4277 11.9436 5.42676 11.9066 5.42676C11.6291 5.42676 10.6646 5.48334 9.90271 6.21131C9.05852 7.01804 9.17588 7.98394 9.20392 8.15142V9.698H7.79683C7.68788 9.698 7.59961 9.78968 7.59961 9.90284V11.9858C7.59963 12.0989 7.6879 12.1906 7.79685 12.1906Z" fill="#192023"/>
</svg>
