<svg width="14" height="15" viewBox="0 0 14 15" fill="none" xmlns="http://www.w3.org/2000/svg">
<path d="M13.804 5.62172C13.7617 5.49572 13.6839 5.385 13.5801 5.30324C13.4763 5.22148 13.3511 5.17225 13.2199 5.16164L9.38365 4.85333L7.72356 1.13659C7.67069 1.01688 7.5847 0.915202 7.47596 0.843832C7.36722 0.772462 7.24038 0.734447 7.11075 0.734375C6.98112 0.734303 6.85424 0.772177 6.74542 0.843427C6.63661 0.914676 6.5505 1.01626 6.4975 1.13591L4.83742 4.85333L1.00112 5.16164C0.872228 5.17196 0.749005 5.21963 0.646195 5.29893C0.543385 5.37824 0.465341 5.48582 0.421399 5.60881C0.377458 5.7318 0.36948 5.86499 0.39842 5.99244C0.427361 6.1199 0.491993 6.23622 0.584586 6.3275L3.41958 9.12271L2.41694 13.5139C2.38649 13.6468 2.39625 13.7859 2.44494 13.9132C2.49364 14.0404 2.57902 14.1499 2.69001 14.2275C2.801 14.305 2.93247 14.3471 3.06737 14.3481C3.20227 14.3491 3.33436 14.3091 3.4465 14.2333L7.11053 11.7627L10.7746 14.2333C10.8892 14.3103 11.0244 14.3499 11.1619 14.3469C11.2995 14.3438 11.4328 14.2982 11.544 14.2162C11.6551 14.1343 11.7388 14.0198 11.7838 13.8883C11.8287 13.7568 11.8328 13.6145 11.7954 13.4806L10.5646 9.12475L13.617 6.34656C13.8168 6.16416 13.8902 5.87967 13.804 5.62172Z" fill="#A7A5A0"/>
</svg>
