<svg width="23" height="23" viewBox="0 0 23 23" fill="none" xmlns="http://www.w3.org/2000/svg">
<circle cx="11.5224" cy="11.5521" r="10.8896" fill="white"/>
<path d="M16.304 9.32916C16.298 8.87084 16.2132 8.41708 16.0533 7.98818C15.9148 7.6264 15.7031 7.29784 15.4318 7.02349C15.1606 6.74914 14.8357 6.53504 14.478 6.39486C14.0594 6.23593 13.6172 6.14999 13.1701 6.1407C12.5945 6.11468 12.4121 6.10742 10.951 6.10742C9.48994 6.10742 9.30267 6.10742 8.73129 6.1407C8.28445 6.15006 7.84241 6.23599 7.42399 6.39486C7.06624 6.53494 6.74133 6.74901 6.47007 7.02337C6.1988 7.29773 5.98715 7.62634 5.84865 7.98818C5.69119 8.41125 5.60641 8.85843 5.59796 9.3104C5.57223 9.89314 5.56445 10.0777 5.56445 11.5554C5.56445 13.0332 5.56445 13.222 5.59796 13.8005C5.60693 14.2531 5.69129 14.6997 5.84865 15.1239C5.98738 15.4857 6.19919 15.8141 6.47055 16.0884C6.7419 16.3626 7.06684 16.5766 7.42459 16.7166C7.84186 16.882 8.28398 16.9741 8.73188 16.9889C9.30805 17.015 9.49054 17.0228 10.9516 17.0228C12.4127 17.0228 12.5999 17.0228 13.1713 16.9889C13.6183 16.98 14.0606 16.8943 14.4792 16.7354C14.8368 16.5951 15.1616 16.3809 15.4328 16.1066C15.704 15.8322 15.9158 15.5038 16.0545 15.1421C16.2119 14.7185 16.2963 14.2719 16.3052 13.8186C16.331 13.2365 16.3387 13.0519 16.3387 11.5736C16.3375 10.0959 16.3375 9.90827 16.304 9.32916ZM10.9474 14.35C9.41934 14.35 8.18144 13.0979 8.18144 11.5524C8.18144 10.0069 9.41934 8.75488 10.9474 8.75488C11.681 8.75488 12.3845 9.04962 12.9032 9.57426C13.422 10.0989 13.7134 10.8105 13.7134 11.5524C13.7134 12.2944 13.422 13.0059 12.9032 13.5306C12.3845 14.0552 11.681 14.35 10.9474 14.35ZM13.8235 9.30374C13.7387 9.30382 13.6548 9.287 13.5766 9.25425C13.4983 9.22149 13.4271 9.17345 13.3672 9.11285C13.3073 9.05226 13.2598 8.98032 13.2274 8.90114C13.195 8.82196 13.1784 8.7371 13.1785 8.65141C13.1785 8.56578 13.1952 8.48099 13.2276 8.40189C13.26 8.32278 13.3074 8.2509 13.3673 8.19035C13.4272 8.1298 13.4982 8.08178 13.5765 8.04901C13.6547 8.01624 13.7385 7.99937 13.8232 7.99937C13.9078 7.99937 13.9917 8.01624 14.0699 8.04901C14.1481 8.08178 14.2192 8.1298 14.279 8.19035C14.3389 8.2509 14.3864 8.32278 14.4188 8.40189C14.4512 8.48099 14.4678 8.56578 14.4678 8.65141C14.4678 9.01207 14.1795 9.30374 13.8235 9.30374Z" fill="#192023"/>
<path d="M10.9476 13.3698C11.9399 13.3698 12.7443 12.5562 12.7443 11.5526C12.7443 10.5489 11.9399 9.73535 10.9476 9.73535C9.95529 9.73535 9.15088 10.5489 9.15088 11.5526C9.15088 12.5562 9.95529 13.3698 10.9476 13.3698Z" fill="#192023"/>
</svg>
