<svg width="23" height="23" viewBox="0 0 23 23" fill="none" xmlns="http://www.w3.org/2000/svg">
<circle cx="11.1313" cy="11.5521" r="10.8896" fill="white"/>
<path d="M15.691 7.88399C15.2775 8.06985 14.8369 8.19304 14.3776 8.25286C14.8501 7.96375 15.2108 7.50943 15.3803 6.96184C14.9398 7.23101 14.4534 7.42113 13.935 7.52724C13.5166 7.07079 12.9204 6.78809 12.27 6.78809C11.0081 6.78809 9.99218 7.83771 9.99218 9.12446C9.99218 9.3096 10.0075 9.48762 10.045 9.6571C8.15003 9.56239 6.47327 8.63169 5.34686 7.21392C5.15021 7.56355 5.03485 7.96375 5.03485 8.39456C5.03485 9.2035 5.44136 9.92057 6.0473 10.3357C5.6811 10.3286 5.32184 10.2197 5.01748 10.048C5.01748 10.0552 5.01748 10.0644 5.01748 10.0737C5.01748 11.2087 5.80757 12.1516 6.84365 12.3687C6.65811 12.4207 6.4559 12.4456 6.24604 12.4456C6.10012 12.4456 5.9528 12.4371 5.81452 12.4058C6.10984 13.3308 6.94788 14.0108 7.94435 14.0329C7.16885 14.6546 6.1842 15.0291 5.11824 15.0291C4.93132 15.0291 4.75203 15.0206 4.57275 14.9971C5.58243 15.6643 6.77902 16.0453 8.06943 16.0453C12.2638 16.0453 14.5569 12.4848 14.5569 9.39861C14.5569 9.29536 14.5534 9.19567 14.5486 9.09669C15.0009 8.7677 15.381 8.35682 15.691 7.88399Z" fill="#192023"/>
</svg>
