<svg width="77" height="62" viewBox="0 0 77 62" fill="none" xmlns="http://www.w3.org/2000/svg">
<path d="M70.127 52.7648C64.7956 58.5446 56.7282 61.4744 46.1528 61.4744L42.3528 61.4744L42.3528 50.7622L45.408 50.1504C50.614 49.1092 54.2354 47.061 56.1734 44.0552C57.1846 42.4359 57.7581 40.5818 57.8378 38.6744L46.1528 38.6744C45.1449 38.6744 44.1784 38.274 43.4658 37.5614C42.7531 36.8487 42.3528 35.8822 42.3528 34.8744L42.3528 8.27437C42.3528 4.08297 45.7614 0.674375 49.9528 0.674375L72.7528 0.674377C73.7606 0.674377 74.7271 1.07473 75.4398 1.78737C76.1524 2.50001 76.5528 3.46655 76.5528 4.47438L76.5528 23.4744L76.5414 34.5666C76.5756 34.9884 77.2976 44.9824 70.127 52.7648ZM8.15276 0.674371L30.9528 0.674373C31.9606 0.674374 32.9271 1.07473 33.6398 1.78737C34.3524 2.5 34.7528 3.46655 34.7528 4.47437L34.7528 23.4744L34.7414 34.5666C34.7756 34.9884 35.4976 44.9824 28.327 52.7648C22.9956 58.5446 14.9282 61.4744 4.35275 61.4744L0.552757 61.4744L0.552758 50.7622L3.60796 50.1504C8.81396 49.1092 12.4354 47.061 14.3734 44.0552C15.3846 42.4359 15.9581 40.5818 16.0378 38.6744L4.35275 38.6744C3.34493 38.6744 2.37839 38.274 1.66575 37.5614C0.953112 36.8487 0.55276 35.8822 0.55276 34.8744L0.552762 8.27437C0.552762 4.08297 3.96136 0.674371 8.15276 0.674371Z" fill="white"/>
</svg>
