<svg width="19" height="18" viewBox="0 0 19 18" fill="none" xmlns="http://www.w3.org/2000/svg">
<circle cx="9.26573" cy="9.0775" r="8.50746" stroke="#5ABA4A" stroke-width="0.680597"/>
<path d="M11.5352 6.52881C11.6515 6.41624 11.8062 6.35401 11.9668 6.35524C12.1273 6.35648 12.2811 6.42109 12.3957 6.53544C12.5103 6.64979 12.5768 6.80493 12.581 6.96814C12.5852 7.13134 12.527 7.28984 12.4185 7.41019L9.12483 11.5988C9.06819 11.6608 8.99984 11.7106 8.92385 11.7452C8.84786 11.7797 8.7658 11.7983 8.68258 11.7999C8.59935 11.8015 8.51667 11.7859 8.43948 11.7543C8.36229 11.7226 8.29217 11.6754 8.23331 11.6156L6.0491 9.39453C5.98827 9.33689 5.93948 9.26739 5.90565 9.19017C5.87181 9.11294 5.85361 9.02958 5.85215 8.94505C5.85068 8.86052 5.86597 8.77655 5.89711 8.69816C5.92825 8.61977 5.97459 8.54856 6.03338 8.48878C6.09217 8.429 6.1622 8.38187 6.23929 8.35021C6.31638 8.31855 6.39895 8.303 6.48208 8.30449C6.56521 8.30598 6.64719 8.32448 6.72313 8.35889C6.79908 8.3933 6.86743 8.44291 6.9241 8.50476L8.65265 10.2616L11.5195 6.54728C11.5247 6.54082 11.5302 6.53465 11.536 6.52881H11.5352Z" fill="#5ABA4A"/>
</svg>
