<svg width="14" height="15" viewBox="0 0 14 15" fill="none" xmlns="http://www.w3.org/2000/svg">
<path d="M13.429 5.62172C13.3867 5.49572 13.3089 5.385 13.2051 5.30324C13.1013 5.22148 12.9761 5.17225 12.8449 5.16164L9.00865 4.85333L7.34856 1.13659C7.29569 1.01688 7.2097 0.915202 7.10096 0.843832C6.99222 0.772462 6.86538 0.734447 6.73575 0.734375C6.60612 0.734303 6.47924 0.772177 6.37042 0.843427C6.26161 0.914676 6.1755 1.01626 6.1225 1.13591L4.46242 4.85333L0.626122 5.16164C0.497228 5.17196 0.374005 5.21963 0.271195 5.29893C0.168385 5.37824 0.0903406 5.48582 0.0463993 5.60881C0.00245794 5.7318 -0.00551986 5.86499 0.0234204 5.99244C0.0523606 6.1199 0.116993 6.23622 0.209586 6.3275L3.04458 9.12271L2.04194 13.5139C2.01149 13.6468 2.02125 13.7859 2.06994 13.9132C2.11864 14.0404 2.20402 14.1499 2.31501 14.2275C2.426 14.305 2.55747 14.3471 2.69237 14.3481C2.82727 14.3491 2.95936 14.3091 3.0715 14.2333L6.73553 11.7627L10.3996 14.2333C10.5142 14.3103 10.6494 14.3499 10.7869 14.3469C10.9245 14.3438 11.0578 14.2982 11.169 14.2162C11.2801 14.1343 11.3638 14.0198 11.4088 13.8883C11.4537 13.7568 11.4578 13.6145 11.4204 13.4806L10.1896 9.12475L13.242 6.34656C13.4418 6.16416 13.5152 5.87967 13.429 5.62172Z" fill="#EEA404"/>
</svg>
